<svg xmlns="http://www.w3.org/2000/svg" viewBox="0 0 64 64" role="img" aria-label="Ticket">
  <defs>
    <linearGradient id="g" x1="8" y1="8" x2="56" y2="56" gradientUnits="userSpaceOnUse">
      <stop stop-color="#ff8cc6"/>
      <stop offset="1" stop-color="#b99cff"/>
    </linearGradient>
    <filter id="s" x="-20%" y="-20%" width="140%" height="140%">
      <feDropShadow dx="0" dy="8" stdDeviation="6" flood-color="#000" flood-opacity=".35"/>
    </filter>
  </defs>
  <rect width="64" height="64" rx="18" fill="#15121c"/>
  <path filter="url(#s)" fill="url(#g)" d="M14 22a6 6 0 0 1 6-6h24a6 6 0 0 1 6 6v5a5 5 0 0 0 0 10v5a6 6 0 0 1-6 6H20a6 6 0 0 1-6-6v-5a5 5 0 0 0 0-10v-5Z"/>
  <path d="M27 19v26" stroke="#fff" stroke-width="3" stroke-linecap="round" stroke-dasharray="3 6" opacity=".85"/>
  <circle cx="38" cy="28" r="3" fill="#fff" opacity=".88"/>
  <circle cx="38" cy="37" r="3" fill="#fff" opacity=".88"/>
</svg>
